<svg width="11" height="22" viewBox="0 0 11 22" fill="none" xmlns="http://www.w3.org/2000/svg">
<path d="M8.513 21.655C8.29514 21.6558 8.07987 21.6059 7.88303 21.509C7.68618 21.412 7.51276 21.2706 7.3755 21.095L0.331753 12.0135C0.117259 11.7426 0 11.4029 0 11.0523C0 10.7017 0.117259 10.362 0.331753 10.0912L7.62342 1.00968C7.87095 0.700578 8.22666 0.506196 8.61228 0.469295C8.9979 0.432395 9.38185 0.555997 9.67967 0.812911C9.97749 1.06982 10.1648 1.43901 10.2003 1.83924C10.2359 2.23947 10.1168 2.63797 9.86925 2.94707L3.3505 11.0599L9.6505 19.1727C9.82883 19.3949 9.94211 19.6654 9.97694 19.9523C10.0118 20.2392 9.96667 20.5305 9.84701 20.7916C9.72734 21.0527 9.53811 21.2728 9.3017 21.4258C9.06529 21.5789 8.79159 21.6584 8.513 21.655Z" fill="#0E5EA3"/>
</svg>
